<svg version="1.1" xmlns="http://www.w3.org/2000/svg" xmlns:xlink="http://www.w3.org/1999/xlink" width="101.3843" height="93.01887" viewBox="0,0,101.3843,93.01887"><g transform="translate(-200.75,-136.48113)"><g data-paper-data="{&quot;isPaintingLayer&quot;:true}" fill-rule="nonzero" stroke-linecap="butt" stroke-linejoin="miter" stroke-miterlimit="10" stroke-dasharray="" stroke-dashoffset="0" style="mix-blend-mode: normal"><path d="M226.14881,191.36508v-13.85119l27.70238,-19.88889v44.75z" fill="#ffffff" stroke="none" stroke-width="0"/><path d="M258.70227,172.42586v0v0v0z" fill="none" stroke="#ffffff" stroke-width="0.5"/><path d="M264.15169,172.84348c-2.00018,-2.0156 -4.75826,-1.52383 -2.94304,-1.52383c3.19823,0 5.24879,4.11426 5.24879,8.86925c0,4.75499 -2.59268,8.60967 -5.79092,8.60967c-1.55223,0 1.0854,0.30343 2.84182,-1.17479c1.86254,-1.56752 2.89982,-4.98768 2.89982,-7.43488c0,-2.05621 -0.73252,-5.80972 -2.25647,-7.34542z" fill="none" stroke="#ffffff" stroke-width="3.5"/><path d="M268.70259,167.13982v0v0v0z" fill="none" stroke="#ffffff" stroke-width="0.5"/><path d="M274.15169,167.91808c-2.00018,-3.70891 -4.75826,-2.804 -2.94304,-2.804c3.19823,0 5.24879,7.57064 5.24879,16.32027c0,8.74963 -2.59268,15.84261 -5.79092,15.84261c-1.55223,0 1.0854,0.55834 2.84182,-2.16172c1.86254,-2.88439 2.89982,-9.17779 2.89982,-13.68089c0,-3.78363 -0.73252,-10.69044 -2.25647,-13.51627z" fill="none" stroke="#ffffff" stroke-width="3.5"/><path d="M278.95293,163.78411v0v0v0z" fill="none" stroke="#ffffff" stroke-width="0.5"/><path d="M284.40169,164.7069c-2.00018,-4.39771 -4.75826,-3.32475 -2.94304,-3.32475c3.19823,0 5.24879,8.97663 5.24879,19.3512c0,10.37457 -2.59268,18.78483 -5.79092,18.78483c-1.55223,0 1.0854,0.66202 2.84182,-2.56319c1.86254,-3.42006 2.89982,-10.88225 2.89982,-16.22164c0,-4.4863 -0.73252,-12.67582 -2.25647,-16.02645z" fill="none" stroke="#ffffff" stroke-width="3.5"/><path d="M216.625,194v-20.14286h21v20.14286z" fill="#ffffff" stroke="none" stroke-width="0"/><path d="M203.25,182.99057c0,24.30574 21.57636,44.00943 48.19215,44.00943c26.61579,0 48.19215,-19.7037 48.19215,-44.00943c0,-24.30574 -21.57636,-44.00943 -48.19215,-44.00943c-26.61579,0 -48.19215,19.7037 -48.19215,44.00943z" fill="none" stroke="#ffffff" stroke-width="5"/></g></g></svg>