<svg version="1.1" xmlns="http://www.w3.org/2000/svg" xmlns:xlink="http://www.w3.org/1999/xlink" width="71.75" height="68.70292" viewBox="0,0,71.75,68.70292"><g transform="translate(-203.5,-146.47321)"><g data-paper-data="{&quot;isPaintingLayer&quot;:true}" fill-rule="nonzero" stroke-linejoin="miter" stroke-miterlimit="10" stroke-dasharray="" stroke-dashoffset="0" style="mix-blend-mode: normal"><path d="M207.26154,180c0,17.67311 14.65751,32 32.73846,32c18.08096,0 32.73846,-14.32689 32.73846,-32c0,-17.67311 -14.6575,-32 -32.73846,-32c-18.08095,0 -32.73846,14.32689 -32.73846,32z" fill="#000000" stroke="none" stroke-width="0" stroke-linecap="butt"/><path d="M218.125,180c0,1.59746 -0.72814,-9.90493 4.03821,-13.12822c3.12241,-2.11157 5.74695,-7.45085 9.92271,-8.54344c8.40722,-2.19977 18.52207,1.36382 19.58409,2.98191c0.59778,0.91077 2.06407,2.72574 3.7034,5.08213c3.81248,5.48012 8.56083,13.88855 5.49712,20.66213c-1.40826,3.11353 -1.78325,5.87161 -5.21811,8.17297c-2.64687,1.7734 -3.36544,4.27559 -6.22082,5.46023c-4.74943,1.97044 -10.99403,2.0623 -9.43159,2.0623c12.08123,0 21.875,-10.18552 21.875,-22.75c0,-12.56448 -9.79377,-22.75 -21.875,-22.75c-12.08123,0 -21.875,10.18552 -21.875,22.75z" fill="none" stroke="#ffffff" stroke-width="3.5" stroke-linecap="butt"/><path d="M209.75,179.5c0,0 8.1594,5.96253 9.2,7.35c0.47927,0.63902 -2.45,-1.85 -2.45,-1.85" fill="none" stroke="#ffffff" stroke-width="2.5" stroke-linecap="round"/><path d="M219.25,187.75l6,-8" data-paper-data="{&quot;index&quot;:null}" fill="none" stroke="#ffffff" stroke-width="2.5" stroke-linecap="round"/><path d="M205.25,180.82468c0,18.00529 15.27828,32.60146 34.125,32.60146c18.84672,0 34.125,-14.59617 34.125,-32.60146c0,-18.00529 -15.27828,-32.60146 -34.125,-32.60146c-18.84672,0 -34.125,14.59617 -34.125,32.60146z" fill="none" stroke="#ffffff" stroke-width="3.5" stroke-linecap="butt"/></g></g></svg>