<svg version="1.1" xmlns="http://www.w3.org/2000/svg" xmlns:xlink="http://www.w3.org/1999/xlink" width="40.1431" height="75.29688" viewBox="0,0,40.1431,75.29688"><defs><radialGradient cx="227.28127" cy="205.26388" r="19.30297" gradientUnits="userSpaceOnUse" id="color-1"><stop offset="0" stop-color="#0033cc"/><stop offset="1" stop-color="#00ffff"/></radialGradient><radialGradient cx="238.22882" cy="163.72509" r="43.47907" gradientUnits="userSpaceOnUse" id="color-2"><stop offset="0" stop-color="#00ffff"/><stop offset="1" stop-color="#0033cc"/></radialGradient></defs><g transform="translate(-210.66671,-150.54451)"><g data-paper-data="{&quot;isPaintingLayer&quot;:true}" fill-rule="nonzero" stroke-linejoin="miter" stroke-miterlimit="10" stroke-dasharray="" stroke-dashoffset="0" style="mix-blend-mode: normal"><g><g fill="url(#color-1)" stroke="none" stroke-width="1" stroke-linecap="butt"><g><path d="M228.02238,198.18307c-0.45149,0.517 0.41532,2.2035 -0.05307,2.74046c-0.59896,0.68629 -1.23979,1.40901 -1.60077,2.25893c-0.44886,1.05543 -0.01085,1.34148 -0.38307,-0.0086c0.21248,0.77015 0.61902,1.54349 1.3536,1.94114c1.43725,0.77816 2.81973,0.26017 2.99115,-1.4389c-0.01919,0.89717 -0.03782,1.7938 -0.05647,2.69156c-0.01497,-0.63689 0.15733,-1.85015 -0.70974,-0.99755c-0.43943,0.43171 -0.88517,0.87919 -1.13492,1.45654c-0.48701,1.12549 -0.64834,0.90901 -0.18304,2.09645c0.2183,0.558 0.44091,1.14577 0.82317,1.61876c0.01979,0.02505 1.2405,1.27438 1.24954,1.00972c0.02034,-0.59122 0.10377,-1.1017 0.39848,-1.61903c-0.01787,0.91367 -0.03574,1.82679 -0.05361,2.74046c-3.99363,2.87998 -2.40629,7.16853 0.52692,10.42792c0.4556,0.50625 -0.48986,2.25543 -0.05356,2.74046c-3.36096,-3.73494 -5.22256,-12.44542 -0.41975,-15.90883c-0.40599,0.29313 0.2303,2.2421 -0.05361,2.74046c-0.30945,0.54331 -0.36882,1.00056 -0.39054,1.63284c-0.00066,0.06249 -0.00411,0.12549 -0.01079,0.18732c-2.72708,-2.05352 -2.59448,-5.52604 -2.32214,-8.59937c0.09572,-1.08267 2.32269,-5.10859 2.3821,-2.59678c0.0239,1.0209 0.0153,2.05094 -0.04139,3.07075c-0.16747,2.98222 -3.99774,1.90996 -4.34957,-0.45352c-0.43219,-2.90947 0.13371,-5.49019 2.09108,-7.7312z"/></g></g><path d="M231.05025,210.49676c0,0 0.05975,1.65334 -0.05482,2.46686c-0.05263,0.37277 -0.43855,1.04156 -0.43855,1.04156" fill="none" stroke="#007fdf" stroke-width="2" stroke-linecap="round"/></g><path d="M250.5208,178.03754c-1.86643,13.59497 -18.09738,23.37163 -22.99821,23.20203c-5.34436,-0.18468 -18.54251,-15.05322 -16.67669,-28.64923c1.86698,-13.59503 12.26151,-23.39741 23.21705,-21.8935c10.9555,1.50391 18.32422,13.74568 16.45786,27.34071z" fill="url(#color-2)" stroke="none" stroke-width="1" stroke-linecap="butt"/></g></g></svg>