<svg version="1.1" xmlns="http://www.w3.org/2000/svg" xmlns:xlink="http://www.w3.org/1999/xlink" width="48.92267" height="46.66159" viewBox="0,0,48.92267,46.66159"><g transform="translate(-202.55687,-169.44044)"><g data-paper-data="{&quot;isPaintingLayer&quot;:true}" fill-rule="evenodd" stroke="none" stroke-width="1" stroke-linecap="butt" stroke-linejoin="miter" stroke-miterlimit="10" stroke-dasharray="" stroke-dashoffset="0" style="mix-blend-mode: normal"><g><path d="M247.42635,215.20415c-9.85323,2.01162 -17.79695,-1.38357 -22.1456,-7.01635c-5.32328,-6.92979 -6.11605,-22.22159 3.44885,-25.23417c-0.10744,-0.87599 -0.36116,-4.57026 -0.24761,-7.11989l2.96031,-1.96354c2.10117,1.40727 3.50937,5.36469 1.14438,9.4322c1.2564,0.24451 3.17726,2.10622 3.06366,4.65586c-0.23196,4.78405 -0.92338,9.07249 2.10307,13.52444c2.44155,3.55779 7.75017,4.64228 11.31279,7.41564c4.35579,3.36603 2.20683,5.44471 -1.63982,6.30579z" fill="#272525"/><path d="M230.27513,174.97916c1.13149,0.42545 2.56493,1.63861 2.67726,2.82986c-0.19895,0.35245 -1.74668,6.00923 -0.79609,6.30964c2.39721,0.72093 0.69045,9.83126 2.91101,15.06269c3.06142,7.23781 9.89459,7.72757 13.27736,11.5348c1.85615,2.08431 -0.63211,3.17127 -1.39686,3.31104c-11.91603,1.96715 -17.8314,-3.59006 -20.49555,-7.21254c-3.49946,-4.73426 -3.0931,-11.44681 -1.82337,-16.89473c0.27253,-1.10348 1.1003,-3.20411 1.77625,-4.11795c1.12055,-1.36386 1.40779,-1.52173 3.11324,-1.99149c0.2456,-0.09755 0.75675,-8.83132 0.75675,-8.83132z" fill="#fff63b"/><path d="M230.09942,185.54825c0.03676,-0.37548 0.57455,-0.31572 0.52847,0.0088c-1.21839,10.91771 1.88686,20.41301 9.90513,24.21599c1.67415,0.80041 4.86402,1.53457 5.57338,1.66835c0.76037,0.1244 0.27406,0.63476 -0.42592,0.55198c-0.64909,-0.09214 -1.19619,-0.20285 -2.18836,-0.44299c-8.28095,-2.06912 -15.73893,-6.55403 -13.39269,-26.00213z" fill="#272525"/></g><g><path d="M229.96819,181.15836c1.18062,0.53364 2.46309,2.95609 1.51941,5.39601c-1.75242,4.53139 -3.75247,8.42761 -2.3399,13.58198c1.12556,4.1032 5.79774,6.72693 8.31724,10.41377c3.02568,4.5299 0.2997,5.87987 -3.66346,5.48759c-9.93326,-0.97501 -16.37704,-6.54945 -18.70632,-13.19876c-2.83007,-8.18388 1.30263,-23.01429 11.36482,-23.12982c0.28627,-1.33797 2.26828,-8.89369 3.36443,-8.97835c3.02423,-0.24828 6.07301,6.29405 0.14378,10.42759z" fill="#272525"/><path d="M230.48266,172.49565c1.22553,0.25822 2.28263,1.19102 1.63129,3.51288c-0.4155,1.47293 -3.60731,5.26269 -2.79202,5.82461c2.06351,1.39907 -2.47601,9.63015 -2.06953,15.27384c0.62638,7.82472 6.91181,10.30185 8.89196,14.9051c1.09134,2.51806 -1.59559,2.85055 -2.36012,2.75521c-11.87842,-1.60404 -15.73128,-8.65766 -17.10421,-12.91821c-1.77803,-5.60394 0.71029,-11.83879 3.65439,-16.74153c0.57866,-0.97829 2.03402,-2.78884 3.00633,-3.42998c1.47248,-1.01793 1.19675,-2.01842 2.96748,-1.93466c0.27547,0.0449 4.17444,-7.24725 4.17444,-7.24725z" fill="#fff63b"/><path d="M226.94994,182.62644c0.18541,-0.35981 0.65766,-0.14636 0.51163,0.15162c-4.65138,10.11427 -4.72136,20.05853 1.62138,26.13322c1.34951,1.29255 4.09885,2.9106 4.74539,3.19147c0.65786,0.33149 -0.05582,1.18055 -0.65179,0.88842c-0.59591,-0.29214 -1.47861,-0.67972 -2.28263,-1.19102c-7.21361,-4.50047 -12.38174,-11.26138 -3.94398,-29.1737z" fill="#272525"/></g><g><path d="M226.40102,179.05049c0.63885,1.12722 0.48035,3.61414 -1.36433,5.27433c-3.67745,3.3708 -6.59263,6.13562 -7.79375,11.42465c-0.92294,4.21169 1.18401,8.40042 1.64115,12.81876c0.53204,5.41247 -3.95214,5.13966 -7.26838,3.0469c-8.31585,-5.22602 -9.888,-12.78927 -8.71483,-19.77572c1.43328,-8.59212 12.13217,-20.11675 21.03795,-15.77554c0.86877,-1.05707 6.17653,-6.99593 7.22734,-6.60498c2.76355,1.10502 2.13957,8.38785 -4.76514,9.59159z" fill="#272525"/><path d="M230.87666,171.39106c0.51413,1.05014 0.57778,2.89888 -0.25247,3.89362c-0.75318,0.86998 -3.53234,2.85726 -5.26208,3.42529c1.15297,2.17737 -6.7069,8.13286 -9.0387,13.36929c-3.18805,7.24907 1.14518,12.29686 0.67688,17.3064c-0.26224,2.72444 -2.75261,1.8745 -3.39991,1.38824c-9.66709,-6.66433 -9.71135,-14.74795 -8.88642,-19.14941c1.08205,-5.79347 6.29584,-10.32567 11.16346,-13.39159c0.97591,-0.60313 3.13859,-1.59282 4.27207,-1.75385c1.80118,-0.26539 2.15143,-0.1351 3.62391,0.68884c0.29984,0.14227 6.67531,-6.68765 7.10326,-5.77685z" fill="#fff63b"/><path d="M222.90811,178.91641c0.31734,-0.23465 0.62627,0.17172 0.39787,0.33209c-8.89185,6.99786 -13.76129,15.92182 -11.01649,24.16674c0.56801,1.72969 2.20507,4.37861 2.66246,4.96291c0.45739,0.58425 -0.32305,0.662 -0.66765,0.1043c-0.39507,-0.54573 -0.70396,-0.95211 -1.17046,-1.80046c-4.24271,-7.14594 -6.14482,-15.43003 9.79427,-27.76558z" fill="#272525"/></g></g></g></svg>