<svg version="1.1" xmlns="http://www.w3.org/2000/svg" xmlns:xlink="http://www.w3.org/1999/xlink" width="52.41243" height="44.80937" viewBox="0,0,52.41243,44.80937"><g transform="translate(-199.91064,-194.74716)"><g data-paper-data="{&quot;isPaintingLayer&quot;:true}" fill-rule="nonzero" stroke-linejoin="miter" stroke-miterlimit="10" stroke-dasharray="" stroke-dashoffset="0" style="mix-blend-mode: normal"><path d="M234.48304,226.56978c4.409,-0.01889 8.40136,0.72058 11.29032,1.93031c2.88944,1.21045 4.67457,2.8905 4.66869,4.75351c-0.00588,1.86301 -1.80171,3.55839 -4.69881,4.79361c-2.89674,1.23456 -6.89386,2.00818 -11.30292,2.02707c-4.409,0.01889 -8.40136,-0.72058 -11.29032,-1.93031c-2.88944,-1.2105 -4.67457,-2.8905 -4.66869,-4.75351c0.00588,-1.86307 1.80171,-3.55839 4.69887,-4.79367c2.89668,-1.2345 6.89386,-2.00812 11.30286,-2.02701z" fill="#919191" stroke="#919191" stroke-width="3.01865" stroke-linecap="butt"/><path d="M230.96913,199.72162c6.90247,2.80146 12.61096,6.68578 16.25756,10.69811c3.64654,4.01239 4.99533,7.59097 3.8864,11.46609c-1.50786,5.25847 -5.96402,10.21258 -11.14598,12.34419c-5.75927,2.54106 -12.94591,2.77016 -19.02564,0.54048c-7.06962,-2.5938 -13.9124,-7.62608 -17.70162,-14.07355c-3.37687,-5.52613 -4.34413,-13.19266 -2.16369,-19.11955c1.3934,-3.78233 5.36676,-5.17822 10.77818,-5.51419c5.41142,-0.33596 12.21232,0.8569 19.1148,3.65842z" fill="#a85b00" stroke="none" stroke-width="0.69108" stroke-linecap="round"/><path d="M231.05918,199.76908c6.57726,2.66954 12.10683,6.14762 15.72807,9.61009c3.62106,3.46282 5.33337,6.90984 4.27493,9.5176c-1.05844,2.60782 -4.68871,3.8864 -9.69889,3.84613c-5.01,-0.04069 -11.39944,-1.40023 -17.9767,-4.06971c-6.57726,-2.66948 -12.10689,-6.14762 -15.72807,-9.61009c-3.62112,-3.46282 -5.33337,-6.90984 -4.27499,-9.5176c1.05844,-2.60776 4.68871,-3.8864 9.69889,-3.84607c5.01,0.04069 11.3995,1.40017 17.97676,4.06965z" fill="#ef9300" stroke="#eac28e" stroke-width="1.9027" stroke-linecap="round"/><path d="M229.57253,199.58975c0,0 -2.55709,7.48899 -4.79919,10.67827c-1.65814,2.35864 -6.62573,5.57317 -6.62573,5.57317" fill="none" stroke="#eac28e" stroke-width="1.37879" stroke-linecap="round"/><path d="M225.6891,208.55749l20.96569,0.95586" fill="none" stroke="#eac28e" stroke-width="1.37879" stroke-linecap="round"/><path d="M205.08979,197.69384l20.43721,11.26306l12.29739,13.25348" fill="none" stroke="#eac28e" stroke-width="1.37879" stroke-linecap="round"/><path d="M224.74726,208.64042l-17.2907,-0.35028" fill="none" stroke="#eac28e" stroke-width="1.37879" stroke-linecap="round"/><path d="M224.98456,209.20192l-8.38669,-13.2833" fill="none" stroke="#eac28e" stroke-width="1.37879" stroke-linecap="round"/><path d="M225.49694,209.63138l24.97315,9.69277" fill="none" stroke="#eac28e" stroke-width="1.37879" stroke-linecap="round"/></g></g></svg>