<svg version="1.1" xmlns="http://www.w3.org/2000/svg" xmlns:xlink="http://www.w3.org/1999/xlink" width="108.85157" height="86.11302" viewBox="0,0,108.85157,86.11302"><g transform="translate(-171.62008,-127.43505)"><g data-paper-data="{&quot;isPaintingLayer&quot;:true}" fill-rule="evenodd" stroke-miterlimit="10" stroke-dasharray="" stroke-dashoffset="0" style="mix-blend-mode: normal"><g><path d="M184.98961,187.52643c11.73605,-6.37839 23.34902,-6.93918 23.34902,-6.93918l12.6171,15.441c0,0 -13.37082,8.60354 -17.57449,8.43623c0,0 -8.33299,-4.98003 -11.06058,-8.74089" fill="#f9a41e" stroke="none" stroke-width="1" stroke-linecap="butt" stroke-linejoin="miter"/><path d="M184.98961,187.52643c12.79938,-5.88268 23.34902,-6.93918 23.34902,-6.93918l12.6171,15.441c0,0 -13.37082,8.60354 -17.57449,8.43623c0,0 -8.33299,-4.98003 -11.06058,-8.74089" fill="none" stroke="#231f20" stroke-width="0.9025" stroke-linecap="round" stroke-linejoin="round"/><path d="M215.61237,195.5288c-9.00408,7.35319 -18.15006,0.69974 -18.11377,-3.86378c0.03638,-4.56349 8.56805,-7.05853 12.52637,-7.00559c3.92021,0.13468 12.10616,5.64362 5.5874,10.86938z" fill="#ffffff" stroke="none" stroke-width="1" stroke-linecap="butt" stroke-linejoin="miter"/></g><g><path d="M193.71615,195.07961c-3.83221,1.59906 -7.66389,4.69204 -11.26124,7.49585c-6.96028,5.31872 -13.59326,-2.45339 -8.69396,-7.83677c3.72775,-3.93792 11.22866,-7.21226 11.22866,-7.21226" fill="#f9a41e" stroke="none" stroke-width="1" stroke-linecap="butt" stroke-linejoin="miter"/><path d="M193.71615,195.07961c-3.83221,1.59906 -7.66389,4.69204 -11.26124,7.49585c-6.96028,5.31872 -13.59326,-2.45339 -8.69396,-7.83677c3.72775,-3.93792 11.22866,-7.21226 11.22866,-7.21226" fill="none" stroke="#231f20" stroke-width="0.9025" stroke-linecap="round" stroke-linejoin="round"/></g><g><path d="M206.63282,209.66451c-4.25111,3.99272 -9.76851,4.50751 -12.55577,1.51533c-2.41089,-2.51795 -1.00063,-7.03841 2.76032,-9.76596c4.19698,-3.02221 9.31092,-3.52593 11.91803,-1.21518c2.40531,2.3162 1.45813,6.05679 -2.12258,9.46581z" fill="#f9a41e" stroke="none" stroke-width="1" stroke-linecap="butt" stroke-linejoin="miter"/><path d="M206.63282,209.66451c-4.25111,3.99272 -9.76851,4.50751 -12.55577,1.51533c-2.41089,-2.51795 -1.00063,-7.03841 2.76032,-9.76596c4.19698,-3.02221 9.31092,-3.52593 11.91803,-1.21518c2.40531,2.3162 1.45813,6.05679 -2.12258,9.46581z" fill="none" stroke="#231f20" stroke-width="0.9025" stroke-linecap="round" stroke-linejoin="round"/></g><g><path d="M253.86675,172.63605c6.26403,-1.262 15.61195,-7.85744 18.6422,-10.72659c4.91599,-4.77804 11.49484,3.96458 4.39309,10.01395c-6.98188,6.00573 -23.59446,6.82476 -23.59446,6.82476c-4.18712,0.43786 -5.54136,-4.7739 0.55917,-6.11212z" fill="#f9a41e" stroke="none" stroke-width="1" stroke-linecap="butt" stroke-linejoin="miter"/><path d="M253.86675,172.63605c6.26403,-1.262 15.61195,-7.85744 18.6422,-10.72659c4.91599,-4.77804 11.49484,3.96458 4.39309,10.01395c-6.98188,6.00573 -23.59446,6.82476 -23.59446,6.82476c-4.18712,0.43786 -5.54136,-4.7739 0.55917,-6.11212z" fill="none" stroke="#231f20" stroke-width="0.9025" stroke-linecap="round" stroke-linejoin="round"/></g><g><path d="M202.98969,179.88605c0,0 -6.2443,-3.9067 -11.97273,0.69185c-4.93255,4.17287 -12.98256,-2.26833 -5.18279,-7.89277c6.9277,-5.03512 15.73551,1.06238 15.73551,1.06238z" fill="#f9a41e" stroke="none" stroke-width="1" stroke-linecap="butt" stroke-linejoin="miter"/><path d="M202.98969,179.88605c0,0 -6.2443,-3.9067 -11.97273,0.69185c-4.93255,4.17287 -12.68799,-1.83234 -5.18279,-7.89277c6.43691,-5.26392 15.73551,1.06238 15.73551,1.06238z" fill="none" stroke="#231f20" stroke-width="0.9025" stroke-linecap="round" stroke-linejoin="round"/></g><g><path d="M248.78685,149.35719l12.03124,-4.44842l-2.72101,12.67201c0,0 3.76393,4.7419 4.20298,11.91683c0.47717,7.09317 -2.18715,11.52683 -2.18715,11.52683c0,0 5.13723,3.29109 2.6377,10.78883c-4.85763,14.26491 -25.08469,15.78875 -44.9026,4.25992c-15.01341,-8.59211 -22.26565,-24.22071 -15.85327,-36.26715c5.84041,-10.81952 12.98771,-12.2672 12.98771,-12.2672l6.97092,-19.65254l8.94238,15.42064c0,0 4.96137,-0.17644 9.65649,1.71354c4.61882,2.05367 8.23459,4.33671 8.23459,4.33671z" fill="#f9a41e" stroke="none" stroke-width="1" stroke-linecap="butt" stroke-linejoin="miter"/><path d="M260.03107,180.98628c2.96687,2.17969 4.12374,4.61097 2.63779,10.78887c-1.91038,8.36994 -16.63179,20.72505 -44.90269,4.25988c-9.35263,-5.35574 -17.80736,-14.77381 -8.26504,-26.05823c8.67569,-10.49352 23.21231,5.74279 31.05884,7.70784c7.89013,2.085 12.80121,-1.40091 19.4711,3.30164z" fill="#ffffff" stroke="none" stroke-width="1" stroke-linecap="butt" stroke-linejoin="miter"/><path d="M232.29798,145.8526l-2.50433,-4.45349" fill="none" stroke="#231f20" stroke-width="0.63175" stroke-linecap="round" stroke-linejoin="round"/><path d="M248.78685,149.35719l12.03124,-4.44842l-2.72101,12.67201c0,0 3.76393,4.7419 4.20298,11.91683c0.47717,7.09317 -2.18715,11.52683 -2.18715,11.52683c0,0 5.13723,3.29109 2.6377,10.78883c-4.85763,14.26491 -25.08469,15.78875 -44.9026,4.25992c-15.01341,-8.59211 -22.26565,-24.22071 -15.85327,-36.26715c5.84041,-10.81952 12.98771,-12.2672 12.98771,-12.2672l6.97092,-19.65254l8.94238,15.42064c0,0 4.96137,-0.17644 9.65649,1.71354c4.61882,2.05367 8.23459,4.33671 8.23459,4.33671z" fill="none" stroke="#231f20" stroke-width="0.9025" stroke-linecap="round" stroke-linejoin="round"/></g><g fill="none" stroke="#231f20" stroke-width="0.9025" stroke-linecap="round" stroke-linejoin="round"><path d="M202.34595,165.24716c0,0 -3.6699,-1.31253 -5.58938,-2.10771c-1.88141,-0.87707 -5.78064,-3.19273 -5.78064,-3.19273"/><path d="M194.85929,149.9077c0,0 1.97981,1.52039 5.1927,5.30833c2.88008,3.43375 4.33151,6.30103 4.33151,6.30103"/></g><g><path d="M260.09705,168.66975c0.68383,5.79546 -1.64223,10.78512 -5.26229,11.28817c-3.62006,0.50306 -7.0513,-3.88461 -7.81693,-9.71809c-0.68383,-5.79546 1.64223,-10.78512 5.26229,-11.28817c3.58195,-0.4213 7.13306,3.92272 7.81693,9.71809z" fill="#ffffff" stroke="#231f20" stroke-width="0.9025" stroke-linecap="round" stroke-linejoin="round"/><path d="M257.35437,171.02309c-0.16851,1.21586 -1.31864,1.97423 -2.29473,1.71834c-1.01411,-0.17409 -1.77248,-1.32422 -1.52212,-2.50193c0.16855,-1.21595 1.31864,-1.97423 2.29464,-1.71839c0.97609,0.25588 1.65261,1.36786 1.52222,2.50197" fill="#231f20" stroke="none" stroke-width="1" stroke-linecap="butt" stroke-linejoin="miter"/></g><g><path d="M235.03528,160.27255c0.68388,5.79537 -2.20371,10.92167 -6.42893,11.44128c-4.22527,0.5197 -8.29983,-3.76956 -8.98367,-9.56503c-0.68388,-5.79537 2.2038,-10.92163 6.42903,-11.44124c4.22527,-0.5197 8.29974,3.76952 8.98358,9.56498z" fill="#ffffff" stroke="#231f20" stroke-width="0.9025" stroke-linecap="round" stroke-linejoin="round"/><path d="M231.93288,162.75686c-0.4957,1.06333 -1.69501,1.49999 -2.67659,1.0424c-0.89983,-0.41948 -1.38013,-1.73865 -0.88438,-2.80208c0.4957,-1.06333 1.69501,-1.49999 2.67659,-1.0424c1.02522,0.57746 1.38013,1.73865 0.88438,2.80208" fill="#231f20" stroke="none" stroke-width="1" stroke-linecap="butt" stroke-linejoin="miter"/></g><g stroke="#231f20" stroke-linecap="round" stroke-linejoin="round"><path d="M240.89146,175.05107c1.75034,0.5173 5.07641,1.07209 4.48842,3.18778c-0.38133,0.81798 -3.58071,3.40902 -5.66377,2.53757c-2.00127,-0.83343 -4.53269,-4.80161 -3.56284,-6.24136c0.93183,-1.35795 3.1514,0.07506 4.73819,0.51601z" fill="#231f20" stroke-width="0.63175"/><path d="M243.86751,186.39593c-0.83343,2.00127 -14.36211,-2.51315 -13.01643,-4.97258" fill="none" stroke-width="0.9025"/></g><g fill="#231f20" stroke="#231f20" stroke-width="0.63175" stroke-linecap="round" stroke-linejoin="round" opacity="0.1"><path d="M202.9958,181.58173c-0.88318,0.18573 -1.88623,0.4151 -2.97116,0.60641"/><path d="M219.28776,197.04303c-0.55599,0.33826 -1.38999,0.8457 -2.30571,1.31493"/></g><g fill="none" stroke="#231f20" stroke-width="0.9025" stroke-linecap="round" stroke-linejoin="round"><path d="M272.34509,188.32c0,0 -2.60586,0.67719 -5.68657,0.23678c-2.63353,-0.33157 -7.43745,-1.77445 -7.43745,-1.77445"/><path d="M265.98131,199.19431c0,0 -1.91952,-0.79532 -4.46629,-2.38086c-2.54686,-1.58559 -4.71231,-3.98912 -4.71231,-3.98912"/></g></g></g></svg>