<svg version="1.1" xmlns="http://www.w3.org/2000/svg" xmlns:xlink="http://www.w3.org/1999/xlink" width="53.29339" height="46.49567" viewBox="0,0,53.29339,46.49567"><g transform="translate(-203.82967,-166.0211)"><g data-paper-data="{&quot;isPaintingLayer&quot;:true}" fill-rule="evenodd" stroke="none" stroke-width="1" stroke-linecap="butt" stroke-linejoin="miter" stroke-miterlimit="10" stroke-dasharray="" stroke-dashoffset="0" style="mix-blend-mode: normal"><g><path d="M254.21055,204.35361c-8.57612,5.25195 -17.20153,4.77002 -23.21074,0.9584c-7.3678,-4.69839 -13.32911,-18.80266 -5.36547,-24.89718c-0.3998,-0.7868 -1.89844,-4.17297 -2.66138,-6.60842l2.113,-2.85555c2.45518,0.60615 5.12881,3.84588 4.29311,8.47615c1.26445,-0.19871 3.70515,0.89613 4.46805,3.3316c1.41381,4.57625 2.22667,8.84334 6.59018,11.99595c3.50869,2.5116 8.86886,1.72025 13.16382,3.11206c5.24272,1.67838 3.93169,4.3654 0.60945,6.48695z" fill="#272525"/><path d="M224.36707,172.39145c1.20875,0.01398 2.97003,0.66543 3.48197,1.74692c-0.06679,0.39918 0.40785,6.24463 1.4039,6.20277c2.49935,-0.14001 4.00252,9.00612 7.87437,13.16636c5.34666,5.75946 11.93707,3.88903 16.41563,6.31404c2.45579,1.32617 0.48753,3.19669 -0.18368,3.58893c-10.53037,5.91378 -17.98656,2.70762 -21.72656,0.21114c-4.90446,-3.25665 -6.81215,-9.70522 -7.47688,-15.25952c-0.12022,-1.13026 -0.05862,-3.38726 0.26507,-4.47686c0.58813,-1.66429 0.80429,-1.91067 2.24722,-2.93399c0.19759,-0.17548 -2.30104,-8.5598 -2.30104,-8.5598z" fill="#fff63b"/><path d="M227.80706,182.3866c-0.09352,-0.3655 0.4324,-0.49276 0.49978,-0.17199c2.57875,10.67853 8.73665,18.54513 17.57124,19.38497c1.84677,0.18135 5.09575,-0.2166 5.8082,-0.33281c0.7572,-0.14243 0.47415,0.5032 -0.21209,0.66416c-0.64159,0.13479 -1.19364,0.21734 -2.20822,0.33004c-8.49009,0.87964 -17.03061,-0.79234 -21.4589,-19.87436z" fill="#272525"/></g><g><path d="M225.55455,179.053c1.2952,0.03308 3.41802,1.76705 3.49632,4.38193c0.14558,4.85627 -0.18376,9.22344 3.12024,13.42421c2.63118,3.34366 7.95566,3.94625 11.70953,6.36474c4.54782,2.99869 2.56038,5.30162 -1.24389,6.47976c-9.53184,2.96047 -17.63507,0.32716 -22.36454,-4.89501c-5.78707,-6.44166 -7.74032,-21.71271 1.48667,-25.72814c-0.25599,-1.34409 -1.36492,-9.07633 -0.38775,-9.58017c2.69024,-1.40364 8.04114,3.44044 4.18342,9.55271z" fill="#272525"/><path d="M222.6633,170.87082c1.22958,-0.23816 2.56603,0.21072 2.86786,2.60323c0.18934,1.51865 -1.27952,6.25071 -0.30997,6.45177c2.44494,0.48754 1.45961,9.83565 4.02663,14.87816c3.61694,6.9668 10.37101,6.80759 13.98391,10.28004c1.98385,1.89632 -0.36288,3.24651 -1.10439,3.45567c-11.56859,3.13649 -17.85903,-1.86634 -20.77927,-5.25889c-3.8154,-4.47305 -3.94466,-11.18486 -3.13642,-16.84625c0.15316,-1.12625 0.79084,-3.35997 1.43771,-4.32848c0.96138,-1.51001 0.31863,-2.3248 1.98282,-2.93552c0.27128,-0.06564 1.03114,-8.29972 1.03114,-8.29972z" fill="#fff63b"/><path d="M223.34368,181.57831c0.03107,-0.40357 0.54914,-0.39035 0.53034,-0.05905c-0.35684,11.12684 3.44185,20.31722 11.64631,23.45075c1.74564,0.66677 4.90763,1.08966 5.6125,1.0973c0.73496,0.04988 0.40719,1.10951 -0.25546,1.07184c-0.6626,-0.03769 -1.62653,-0.05192 -2.56603,-0.21072c-8.39538,-1.34463 -15.78408,-5.56679 -14.96766,-25.35013z" fill="#272525"/></g><g><path d="M222.11073,176.63986c0.96996,0.85903 1.62673,3.26289 0.42034,5.43169c-2.38518,4.38142 -4.24586,7.94237 -3.66637,13.33502c0.49316,4.28334 3.84493,7.56211 5.71057,11.59325c2.25897,4.94722 -2.07123,6.14374 -5.887,5.23987c-9.5614,-2.24592 -13.50192,-8.89023 -14.65846,-15.87945c-1.43135,-8.59244 4.95064,-22.96441 14.78307,-21.74682c0.47889,-1.28172 3.5732,-8.62118 4.694,-8.59224c2.97256,0.14883 4.74474,7.24026 -1.39614,10.61866z" fill="#272525"/><path d="M223.85977,167.9428c0.82697,0.82658 1.48688,2.5547 1.0242,3.76497c-0.43025,1.06726 -2.41449,3.84858 -3.86644,4.94699c1.79692,1.68563 -3.70609,9.86868 -4.2132,15.57835c-0.6642,7.89123 5.07212,11.26045 6.25415,16.15101c0.6357,2.66219 -1.99571,2.66603 -2.76575,2.41604c-11.30614,-3.16815 -13.97018,-10.8003 -14.61761,-15.23135c-0.85576,-5.83119 2.60595,-11.80957 6.21583,-16.28868c0.72749,-0.88708 2.45219,-2.52478 3.47215,-3.04479c1.6177,-0.83531 1.99127,-0.82567 3.6514,-0.52394c0.32978,0.03731 4.14501,-8.49137 4.84526,-7.76864z" fill="#fff63b"/><path d="M218.7632,177.64608c0.22407,-0.3249 0.64811,-0.04072 0.48408,0.18507c-6.14106,9.50381 -7.85243,19.52478 -2.58155,26.4335c1.09838,1.45191 3.50617,3.42656 4.12836,3.8309c0.62218,0.40428 -0.09084,0.731 -0.59772,0.31523c-0.55073,-0.38807 -0.97474,-0.67228 -1.6912,-1.32342c-6.3313,-5.38328 -10.81776,-12.60241 0.25802,-29.44128z" fill="#272525"/></g></g></g></svg>