<svg version="1.1" xmlns="http://www.w3.org/2000/svg" xmlns:xlink="http://www.w3.org/1999/xlink" width="92.46709" height="89.91335" viewBox="0,0,92.46709,89.91335"><g transform="translate(-199.91065,-153.59258)"><g data-paper-data="{&quot;isPaintingLayer&quot;:true}" fill-rule="nonzero" stroke-linejoin="miter" stroke-miterlimit="10" stroke-dasharray="" stroke-dashoffset="0" style="mix-blend-mode: normal"><path d="M262.7097,219.2616c7.4226,-0.0318 14.1438,1.2131 19.0074,3.2497c4.8644,2.0378 7.8697,4.8662 7.8598,8.0026c-0.0099,3.1364 -3.0332,5.9906 -7.9105,8.0701c-4.8767,2.0784 -11.6059,3.3808 -19.0286,3.4126c-7.4226,0.0318 -14.1438,-1.2131 -19.0074,-3.2497c-4.8644,-2.0379 -7.8697,-4.8662 -7.8598,-8.0026c0.0099,-3.1365 3.0332,-5.9906 7.9106,-8.0702c4.8766,-2.0783 11.6059,-3.3807 19.0285,-3.4125z" fill="#919191" stroke="#919191" stroke-width="3.01865" stroke-linecap="butt"/><path d="M256.744,174.0624c11.6204,4.7163 21.2307,11.2556 27.3698,18.0104c6.139,6.7549 8.4097,12.7795 6.5428,19.3033c-2.5385,8.8527 -10.0405,17.193 -18.7644,20.7816c-9.6958,4.2779 -21.7946,4.6636 -32.0299,0.9099c-11.9018,-4.3667 -23.4217,-12.8386 -29.8009,-23.693c-5.685,-9.3033 -7.3134,-22.21 -3.6426,-32.188c2.3458,-6.3676 9.035,-8.7176 18.1452,-9.2832c9.1102,-0.5656 20.5596,1.4426 32.18,6.159z" fill="#a85b00" stroke="none" stroke-width="0.69108" stroke-linecap="round"/><path d="M256.9956,174.1923c11.0729,4.4942 20.382,10.3496 26.4784,16.1787c6.0961,5.8297 8.9788,11.6328 7.1969,16.023c-1.7819,4.3903 -7.8935,6.5428 -16.3282,6.475c-8.4344,-0.0685 -19.1911,-2.3573 -30.264,-6.8514c-11.0729,-4.4941 -20.3821,-10.3496 -26.4784,-16.1787c-6.0962,-5.8297 -8.9788,-11.6328 -7.197,-16.023c1.7819,-4.3902 7.8935,-6.5428 16.3282,-6.4749c8.4344,0.0685 19.1912,2.3572 30.2641,6.8513z" fill="#ef9300" stroke="#eac28e" stroke-width="2.37146" stroke-linecap="round"/><path d="M254.3928,173.8404c0,0 -4.3049,12.6078 -8.0795,17.977c-2.7915,3.9708 -11.1545,9.3825 -11.1545,9.3825" fill="none" stroke="#eac28e" stroke-width="1.37879" stroke-linecap="round"/><path d="M247.855,188.9377l35.296,1.6092" fill="none" stroke="#eac28e" stroke-width="1.37879" stroke-linecap="round"/><path d="M213.1758,170.6486l34.4063,18.9615l20.7028,22.3124" fill="none" stroke="#eac28e" stroke-width="1.37879" stroke-linecap="round"/><path d="M246.2694,189.0773l-29.1091,-0.5897" fill="none" stroke="#eac28e" stroke-width="1.37879" stroke-linecap="round"/><path d="M246.6689,190.0226l-14.1191,-22.3626" fill="none" stroke="#eac28e" stroke-width="1.37879" stroke-linecap="round"/><path d="M289.5741,207.0635l-42.0426,-16.3179" fill="none" stroke="#eac28e" stroke-width="1.37879" stroke-linecap="round"/><path d="M250.7437,166.574c-0.568,-3.6894 -2.8421,-5.596 -2.6696,-7.9699c0.137,-1.8826 2.3817,-4.6899 3.8303,-4.1784c1.782,0.6298 2.6308,4.1381 2.6308,6.461c0,2.3229 -1.3657,4.9081 -2.6308,6.4611c-0.4372,0.5362 -0.4519,-1.5476 -0.7738,-2.2827z" fill="none" stroke="#ef9300" stroke-width="1.54379" stroke-linecap="round"/><path d="M242.8195,163.0698c0.2863,0.4124 0.5006,1.4663 0,1.5089c-1.5599,0.1323 -3.7923,-0.0078 -4.5653,-1.122c-0.5424,-0.7815 0.8403,-2.5767 1.9344,-2.6696c1.1561,-0.0982 1.9693,1.3294 3.0178,2.6696z" fill="none" stroke="#ef9300" stroke-width="1.54379" stroke-linecap="round"/><path d="M265.9427,170.9786c-0.8115,0.0559 -2.6366,1.0616 -2.4004,0.3866c0.6845,-1.9538 2.216,-4.5076 4.2418,-5.6442c2.0259,-1.1366 5.535,-2.0521 7.0278,-0.6785c1.213,1.1168 -0.0467,4.6088 -1.6161,5.6592c-1.979,1.3244 -4.8458,0.1111 -8.3642,1.3803z" fill="none" stroke="#ef9300" stroke-width="1.60843" stroke-linecap="round"/><path d="M275.7022,176.7662c1.7239,0.3337 3.3996,0.4027 3.926,1.5418c0.4983,1.078 -0.3352,3.2613 -1.3039,3.1318c-1.3811,-0.1843 -2.6852,-2.2226 -3.3958,-3.7595c-0.2279,-0.4933 0.8047,-0.8067 1.3159,-0.7383z" fill="none" stroke="#ef9300" stroke-width="1.60843" stroke-linecap="round"/><path d="M234.48305,226.56978c4.409,-0.01889 8.40136,0.72058 11.29032,1.93031c2.88944,1.21045 4.67457,2.8905 4.66869,4.75351c-0.00588,1.86301 -1.80171,3.55839 -4.69881,4.79361c-2.89674,1.23456 -6.89386,2.00818 -11.30292,2.02707c-4.409,0.01889 -8.40136,-0.72058 -11.29032,-1.93031c-2.88944,-1.2105 -4.67457,-2.8905 -4.66869,-4.75351c0.00588,-1.86307 1.80171,-3.55839 4.69887,-4.79367c2.89668,-1.2345 6.89386,-2.00812 11.30286,-2.02701z" fill="#919191" stroke="#919191" stroke-width="3.01865" stroke-linecap="butt"/><path d="M230.96914,199.72162c6.90247,2.80146 12.61096,6.68578 16.25756,10.69811c3.64654,4.01239 4.99533,7.59097 3.8864,11.46609c-1.50786,5.25847 -5.96402,10.21258 -11.14598,12.34419c-5.75927,2.54106 -12.94591,2.77016 -19.02564,0.54048c-7.06962,-2.5938 -13.9124,-7.62608 -17.70162,-14.07355c-3.37687,-5.52613 -4.34413,-13.19266 -2.16369,-19.11955c1.3934,-3.78233 5.36676,-5.17822 10.77818,-5.51419c5.41142,-0.33596 12.21232,0.8569 19.1148,3.65842z" fill="#a85b00" stroke="none" stroke-width="0.69108" stroke-linecap="round"/><path d="M229.68419,199.76908c6.57726,2.66954 12.10683,6.14762 15.72807,9.61009c3.62106,3.46282 5.33337,6.90984 4.27493,9.5176c-1.05844,2.60782 -4.68871,3.8864 -9.69889,3.84613c-5.01,-0.04069 -11.39944,-1.40023 -17.9767,-4.06971c-6.57726,-2.66948 -12.10689,-6.14762 -15.72807,-9.61009c-3.62112,-3.46282 -5.33337,-6.90984 -4.27499,-9.5176c1.05844,-2.60776 4.68871,-3.8864 9.69889,-3.84607c5.01,0.04069 11.3995,1.40017 17.97676,4.06965z" fill="#ef9300" stroke="#eac28e" stroke-width="1.9027" stroke-linecap="round"/><path d="M229.57254,199.58975c0,0 -2.55709,7.48899 -4.79919,10.67827c-1.65814,2.35864 -6.62573,5.57317 -6.62573,5.57317" fill="none" stroke="#eac28e" stroke-width="1.37879" stroke-linecap="round"/><path d="M225.68911,208.55749l20.96569,0.95586" fill="none" stroke="#eac28e" stroke-width="1.37879" stroke-linecap="round"/><path d="M205.0898,197.69384l20.43721,11.26306l12.29739,13.25348" fill="none" stroke="#eac28e" stroke-width="1.37879" stroke-linecap="round"/><path d="M224.74727,208.64042l-17.2907,-0.35028" fill="none" stroke="#eac28e" stroke-width="1.37879" stroke-linecap="round"/><path d="M224.98457,209.20192l-8.38669,-13.2833" fill="none" stroke="#eac28e" stroke-width="1.37879" stroke-linecap="round"/><path d="M225.49695,209.63138l24.97315,9.69277" fill="none" stroke="#eac28e" stroke-width="1.37879" stroke-linecap="round"/></g></g></svg>