<svg version="1.1" xmlns="http://www.w3.org/2000/svg" xmlns:xlink="http://www.w3.org/1999/xlink" width="26.02159" height="20.73159" viewBox="0,0,26.02159,20.73159"><g transform="translate(-199.91065,-215.56932)"><g data-paper-data="{&quot;isPaintingLayer&quot;:true}" fill-rule="nonzero" stroke-linejoin="miter" stroke-miterlimit="10" stroke-dasharray="" stroke-dashoffset="0" style="mix-blend-mode: normal"><path d="" fill="#919191" stroke="#919191" stroke-width="3.01865" stroke-linecap="butt"/><path d="M215.04138,218.4806c3.36267,1.36478 6.14367,3.25711 7.92018,5.21179c1.77648,1.95471 2.43357,3.69809 1.89333,5.58592c-0.73458,2.56176 -2.90549,4.97525 -5.42998,6.01371c-2.80574,1.23793 -6.30685,1.34954 -9.2687,0.26331c-3.4441,-1.26362 -6.77769,-3.71519 -8.62368,-6.8562c-1.64511,-2.69216 -2.11633,-6.42706 -1.05408,-9.31445c0.67882,-1.84263 2.61452,-2.52267 5.2508,-2.68634c2.63628,-0.16367 5.94946,0.41746 9.31214,1.78227z" fill="#a85b00" stroke="none" stroke-width="0.69108" stroke-linecap="round"/><path d="M215.08525,218.50373c3.20424,1.30052 5.89807,2.99493 7.66223,4.68174c1.76407,1.68698 2.59825,3.36626 2.08261,4.63668c-0.51564,1.27045 -2.28419,1.89333 -4.725,1.87372c-2.44072,-0.01982 -5.55345,-0.68215 -8.75769,-1.98264c-3.20424,-1.30049 -5.8981,-2.99493 -7.66223,-4.68174c-1.7641,-1.68698 -2.59825,-3.36626 -2.08264,-4.63668c0.51564,-1.27042 2.28419,-1.89333 4.725,-1.87369c2.44072,0.01982 5.55348,0.68212 8.75772,1.98261z" fill="#ef9300" stroke="#eac28e" stroke-width="1.9027" stroke-linecap="round"/><path d="M214.361,218.41636c0,0 -1.24574,3.6484 -2.33802,5.20212c-0.80779,1.14906 -3.22785,2.71508 -3.22785,2.71508" fill="none" stroke="#eac28e" stroke-width="1.37879" stroke-linecap="round"/><path d="M212.46912,222.78517l10.21384,0.46567" fill="none" stroke="#eac28e" stroke-width="1.37879" stroke-linecap="round"/><path d="M202.43377,217.49273l9.95638,5.48701l5.99091,6.45669" fill="none" stroke="#eac28e" stroke-width="1.37879" stroke-linecap="round"/><path d="M212.01028,222.82557l-8.42349,-0.17065" fill="none" stroke="#eac28e" stroke-width="1.37879" stroke-linecap="round"/><path d="M208.04015,216.6279l4.08574,6.47121" fill="none" stroke="#eac28e" stroke-width="1.37879" stroke-linecap="round"/><path d="M212.3755,223.30833l12.16615,4.72202" fill="none" stroke="#eac28e" stroke-width="1.37879" stroke-linecap="round"/></g></g></svg>