<svg version="1.1" xmlns="http://www.w3.org/2000/svg" xmlns:xlink="http://www.w3.org/1999/xlink" width="30.12683" height="23.97059" viewBox="0,0,30.12683,23.97059"><g transform="translate(-199.91065,-212.33031)"><g data-paper-data="{&quot;isPaintingLayer&quot;:true}" fill-rule="nonzero" stroke-linejoin="miter" stroke-miterlimit="10" stroke-dasharray="" stroke-dashoffset="0" style="mix-blend-mode: normal"><path d="" fill="#919191" stroke="#919191" stroke-width="3.01865" stroke-linecap="butt"/><path d="M217.51903,215.56254c3.91331,1.58827 7.14969,3.79045 9.21711,6.06522c2.06738,2.2748 2.83207,4.30365 2.20337,6.50062c-0.85487,2.98125 -3.38126,5.78995 -6.31913,6.99845c-3.26518,1.44064 -7.33959,1.57052 -10.78645,0.30642c-4.00807,-1.47054 -7.88753,-4.32355 -10.03581,-7.9789c-1.91449,-3.133 -2.46287,-7.47948 -1.22669,-10.83969c0.78998,-2.14436 3.04265,-2.93575 6.11061,-3.12623c3.06797,-0.19047 6.92369,0.48581 10.837,2.07411z" fill="#a85b00" stroke="none" stroke-width="0.69108" stroke-linecap="round"/><path d="M217.57009,215.58945c3.72893,1.51348 6.86388,3.48535 8.91692,5.44837c2.05293,1.96322 3.02372,3.91748 2.42364,5.39593c-0.60007,1.47848 -2.65823,2.20337 -5.49872,2.18054c-2.84038,-0.02307 -6.46283,-0.79385 -10.19176,-2.30729c-3.72893,-1.51344 -6.86391,-3.48535 -8.91692,-5.44837c-2.05297,-1.96322 -3.02372,-3.91748 -2.42367,-5.39593c0.60007,-1.47845 2.65823,-2.20337 5.49872,-2.1805c2.84038,0.02307 6.46286,0.79382 10.19179,2.30726z" fill="#ef9300" stroke="#eac28e" stroke-width="1.9027" stroke-linecap="round"/><path d="M216.72724,215.48778c0,0 -1.44972,4.24583 -2.72087,6.05397c-0.94007,1.33721 -3.75641,3.15967 -3.75641,3.15967" fill="none" stroke="#eac28e" stroke-width="1.37879" stroke-linecap="round"/><path d="M214.52556,220.57197l11.88635,0.54192" fill="none" stroke="#eac28e" stroke-width="1.37879" stroke-linecap="round"/><path d="M202.84693,214.4129l11.58673,6.38551l6.97192,7.51396" fill="none" stroke="#eac28e" stroke-width="1.37879" stroke-linecap="round"/><path d="M213.99159,220.61899l-9.80284,-0.19859" fill="none" stroke="#eac28e" stroke-width="1.37879" stroke-linecap="round"/><path d="M209.37135,213.40646l4.75477,7.53087" fill="none" stroke="#eac28e" stroke-width="1.37879" stroke-linecap="round"/><path d="M214.41662,221.18081l14.15835,5.49525" fill="none" stroke="#eac28e" stroke-width="1.37879" stroke-linecap="round"/></g></g></svg>