<svg version="1.1" xmlns="http://www.w3.org/2000/svg" xmlns:xlink="http://www.w3.org/1999/xlink" width="51.8377" height="46.57743" viewBox="0,0,51.8377,46.57743"><g transform="translate(-203.17192,-167.62099)"><g data-paper-data="{&quot;isPaintingLayer&quot;:true}" fill-rule="evenodd" stroke="none" stroke-width="1" stroke-linecap="butt" stroke-linejoin="miter" stroke-miterlimit="10" stroke-dasharray="" stroke-dashoffset="0" style="mix-blend-mode: normal"><g><path d="M251.5193,210.65769c-9.33434,3.74204 -17.75733,1.82288 -23.0436,-2.94098c-6.47723,-5.86557 -9.99312,-20.76879 -1.12155,-25.44406c-0.26243,-0.84263 -1.17302,-4.4319 -1.51746,-6.96071l2.56124,-2.4615c2.31905,1.00863 4.41256,4.65025 2.81347,9.07526c1.27987,0.01578 3.50283,1.50378 3.84723,4.0326c0.62772,4.74836 0.71472,9.09131 4.48885,12.92995c3.03869,3.06356 8.45569,3.18076 12.45702,5.27197c4.88774,2.53241 3.14536,4.96202 -0.48517,6.49743z" fill="#272525"/><path d="M227.448,174.15035c1.18935,0.21615 2.81671,1.15327 3.14036,2.3052c-0.13268,0.38236 -0.64336,6.22478 0.34564,6.35026c2.48751,0.2804 2.43826,9.5491 5.55897,14.29883c4.30697,6.57329 11.11751,5.8326 15.12687,8.97317c2.19911,1.71859 -0.05453,3.23319 -0.78193,3.50753c-11.37181,4.06736 -18.186,-0.34184 -21.45527,-3.42922c-4.29002,-4.03177 -5.09119,-10.70871 -4.81666,-16.2959c0.0707,-1.13443 0.50929,-3.34927 1.01083,-4.3693c0.85846,-1.54234 1.11282,-1.74905 2.7067,-2.51636c0.22418,-0.13992 -0.83551,-8.82422 -0.83551,-8.82422z" fill="#fff63b"/><path d="M229.16609,184.58034c-0.03101,-0.376 0.50879,-0.41342 0.52152,-0.08589c0.7546,10.95954 5.50859,19.74605 14.07789,22.05309c1.79034,0.48797 5.06009,0.63957 5.78194,0.64427c0.77036,-0.01365 0.38321,0.57548 -0.32029,0.61928c-0.6551,0.02548 -1.21318,0.01444 -2.23231,-0.04431c-8.51753,-0.55415 -16.65759,-3.63236 -17.82875,-23.18643z" fill="#272525"/></g><g><path d="M227.33493,180.70244c1.26597,0.27558 3.02563,2.37716 2.61176,4.96027c-0.76846,4.79729 -1.91161,9.02504 0.54525,13.77128c1.95686,3.77808 7.07362,5.36929 10.30687,8.44935c3.90419,3.79896 1.51984,5.68795 -2.43795,6.13115c-9.91809,1.11886 -17.38308,-2.98852 -21.04837,-9.00554c-4.47522,-7.41334 -3.52759,-22.77961 6.28907,-24.9919c0.00083,-1.36825 0.36284,-9.17121 1.41721,-9.4827c2.90588,-0.87377 7.25252,4.88851 2.31616,10.16812z" fill="#272525"/><path d="M226.03075,172.12302c1.25243,-0.00315 2.48088,0.68858 2.3283,3.09523c-0.09905,1.5272 -2.42995,5.89948 -1.51537,6.27894c2.30999,0.93776 -0.41235,9.93481 1.16265,15.3695c2.24509,7.52184 8.90902,8.63311 11.80598,12.72194c1.59268,2.23496 -0.96576,3.12071 -1.73335,3.18698c-11.95168,0.90949 -17.19137,-5.18507 -19.42298,-9.06542c-2.90807,-5.10966 -1.77531,-11.72645 0.08113,-17.13554c0.36182,-1.07749 1.40741,-3.15183 2.22456,-3.98172c1.2277,-1.30274 0.7493,-2.22368 2.49854,-2.5112c0.27878,-0.01356 2.57056,-7.95869 2.57056,-7.95869z" fill="#fff63b"/><path d="M224.68939,182.76792c0.10626,-0.39057 0.61265,-0.28035 0.532,0.04154c-2.43885,10.86213 -0.43258,20.60215 7.03796,25.21986c1.58948,0.98255 4.6159,1.99139 5.30681,2.13119c0.71254,0.18694 0.19171,1.16622 -0.45209,1.00485c-0.64375,-0.16138 -1.58788,-0.35627 -2.48088,-0.68858c-7.99382,-2.89643 -14.45877,-8.43032 -9.9438,-27.70886z" fill="#272525"/></g><g><path d="M224.41223,177.8398c0.80555,1.01481 1.0337,3.49631 -0.53193,5.4219c-3.11169,3.89914 -5.56403,7.08168 -5.93244,12.49285c-0.26025,4.30377 2.46936,8.11611 3.60454,12.41053c1.36298,5.265 -3.10942,5.6892 -6.7095,4.13469c-9.02423,-3.87658 -11.74754,-11.10555 -11.66935,-18.18938c0.08676,-8.71041 8.8739,-21.75148 18.34408,-18.84033c0.69477,-1.17875 5.01985,-7.86725 6.11849,-7.64358c2.90123,0.66418 3.41147,7.95586 -3.22388,10.21331z" fill="#272525"/><path d="M227.64901,169.58018c0.6704,0.95796 1.0193,2.77459 0.35294,3.8858c-0.60952,0.97603 -3.04777,3.36934 -4.66881,4.19813c1.47594,1.97278 -5.36794,9.07255 -6.86156,14.60668c-2.02819,7.65501 3.0338,11.97164 3.34615,16.99332c0.16241,2.73221 -2.42947,2.27778 -3.14421,1.89752c-10.58172,-5.08853 -11.87604,-13.06798 -11.74198,-17.54407c0.17273,-5.89112 4.62259,-11.17536 8.95728,-14.95743c0.87085,-0.74685 2.85438,-2.0592 3.9493,-2.39365c1.73844,-0.54085 2.10463,-0.46631 3.68685,0.1199c0.31824,0.09417 5.56032,-7.63985 6.12402,-6.80622z" fill="#fff63b"/><path d="M220.94063,178.24772c0.27722,-0.28092 0.6453,0.07276 0.44446,0.26654c-7.70218,8.28924 -11.13239,17.8591 -7.14509,25.58011c0.82877,1.62099 2.85592,3.98475 3.3982,4.49126c0.54227,0.50645 -0.21674,0.70401 -0.64348,0.20633c-0.47474,-0.47804 -0.84278,-0.83174 -1.43491,-1.5977c-5.29716,-6.40353 -8.45797,-14.29361 5.38082,-28.94654z" fill="#272525"/></g></g></g></svg>