<svg version="1.1" xmlns="http://www.w3.org/2000/svg" xmlns:xlink="http://www.w3.org/1999/xlink" width="39.17768" height="73.48604" viewBox="0,0,39.17768,73.48604"><defs><linearGradient x1="226.04345" y1="198.80795" x2="225.51689" y2="225.7313" gradientUnits="userSpaceOnUse" id="color-1"><stop offset="0" stop-color="#7f3f98"/><stop offset="1" stop-color="#6600cc"/></linearGradient><radialGradient cx="231.13008" cy="166.82322" r="40.92807" gradientUnits="userSpaceOnUse" id="color-2"><stop offset="0" stop-color="#db50f0"/><stop offset="1" stop-color="#7f3f98"/></radialGradient></defs><g transform="translate(-211.16672,-152.35535)"><g data-paper-data="{&quot;isPaintingLayer&quot;:true}" fill-rule="nonzero" stroke-linejoin="miter" stroke-miterlimit="10" stroke-dasharray="" stroke-dashoffset="0" style="mix-blend-mode: normal"><g><g fill="url(#color-1)" stroke="none" stroke-width="1" stroke-linecap="butt"><g><path d="M228.10499,198.84824c-0.44063,0.50457 0.40532,2.15052 -0.05179,2.67455c-0.58455,0.66977 -1.20998,1.37513 -1.56227,2.20461c-0.43806,1.03005 -0.0106,1.30921 -0.37386,-0.0084c0.20737,0.75163 0.60413,1.50637 1.32104,1.89446c1.40268,0.75944 2.75192,0.25391 2.91921,-1.40429c-0.01873,0.87559 -0.03692,1.75065 -0.05511,2.62684c-0.0146,-0.62157 0.15354,-1.80565 -0.69268,-0.97355c-0.42886,0.42132 -0.86388,0.85804 -1.10763,1.42152c-0.4753,1.09842 -0.63276,0.88715 -0.17864,2.04603c0.21304,0.54459 0.4303,1.11822 0.80336,1.57982c0.01931,0.02445 1.21067,1.24373 1.21949,0.98543c0.01985,-0.57701 0.10128,-1.07521 0.3889,-1.58009c-0.01744,0.8917 -0.03488,1.78286 -0.05233,2.67455c-3.89758,2.81072 -2.34841,6.99613 0.51425,10.17713c0.44465,0.49408 -0.47809,2.20118 -0.05227,2.67455c-3.28013,-3.64512 -5.09696,-12.14611 -0.40965,-15.52624c-0.39623,0.28607 0.22476,2.18818 -0.05233,2.67455c-0.30201,0.53025 -0.35995,0.9765 -0.38114,1.59358c-0.00064,0.06099 -0.00402,0.12246 -0.01054,0.18281c-2.66151,-2.00414 -2.53208,-5.39315 -2.26629,-8.39256c0.09341,-1.05664 2.26683,-4.98573 2.32482,-2.53433c0.02333,0.99634 0.01493,2.00162 -0.04039,2.99689c-0.16344,2.91049 -3.9016,1.86402 -4.24496,-0.44261c-0.4218,-2.8395 0.13048,-5.35815 2.04079,-7.54526z"/></g></g><path d="M231.06005,210.86579c0,0 0.05831,1.61359 -0.0535,2.40754c-0.05136,0.3638 -0.42801,1.01651 -0.42801,1.01651" fill="none" stroke="#6600cc" stroke-width="2" stroke-linecap="round"/></g><path d="M250.06234,179.18719c-1.82154,13.26803 -17.66215,22.80956 -22.44512,22.64403c-5.21584,-0.18025 -18.09657,-14.6912 -16.27563,-27.96024c1.82208,-13.26808 11.96662,-22.83471 22.65869,-21.36697c10.69202,1.46774 17.88354,13.4151 16.06205,26.68318z" fill="url(#color-2)" stroke="none" stroke-width="1" stroke-linecap="butt"/></g></g></svg>