<svg version="1.1" xmlns="http://www.w3.org/2000/svg" xmlns:xlink="http://www.w3.org/1999/xlink" width="53.07049" height="44.49716" viewBox="0,0,53.07049,44.49716"><g transform="translate(-205.40584,-168.96654)"><g data-paper-data="{&quot;isPaintingLayer&quot;:true}" fill-rule="evenodd" stroke="none" stroke-width="1" stroke-linecap="butt" stroke-linejoin="miter" stroke-miterlimit="10" stroke-dasharray="" stroke-dashoffset="0" style="mix-blend-mode: normal"><g><path d="M257.09906,193.91959c-5.66871,8.30653 -13.73336,11.40354 -20.77704,10.39093c-8.64643,-1.26438 -19.86659,-11.68434 -15.10199,-20.50824c-0.68725,-0.5537 -3.44251,-3.02768 -5.13695,-4.93619l0.7564,-3.47084c2.48785,-0.45381 6.25476,1.40484 7.39102,5.97067c1.0718,-0.69969 3.74681,-0.70183 5.44122,1.20671c3.16585,3.59421 5.65682,7.15284 10.9293,8.23916c4.22999,0.85216 8.79443,-2.06738 13.28243,-2.55894c5.46994,-0.61878 5.37589,2.36953 3.21562,5.66673z" fill="#272525"/><path d="M216.77445,177.00393c1.10821,-0.48285 2.98175,-0.61084 3.8921,0.16565c0.10274,0.39146 2.9324,5.52836 3.8237,5.08179c2.2222,-1.15248 7.34327,6.57318 12.58047,8.78013c7.23805,3.06086 12.48211,-1.3473 17.5612,-0.97179c2.78363,0.20266 1.75536,2.71573 1.304,3.3487c-7.17976,9.71145 -15.29498,9.84435 -19.72974,9.10083c-5.80853,-0.9594 -10.19251,-6.05883 -13.07616,-10.85223c-0.57308,-0.98159 -1.4423,-3.06541 -1.59383,-4.19193c-0.14596,-1.7591 -0.04982,-2.07245 0.84665,-3.59743c0.10827,-0.24106 -5.6084,-6.86373 -5.6084,-6.86373z" fill="#fff63b"/><path d="M224.01017,184.70983c-0.23516,-0.29502 0.19233,-0.62673 0.38532,-0.36178c6.7304,8.68232 15.57231,13.33242 23.97451,10.4761c1.75875,-0.5918 4.55891,-2.28689 5.16108,-2.68501c0.63222,-0.44036 0.63878,0.26455 0.07888,0.69273c-0.52992,0.386 -0.99958,0.68765 -1.87875,1.20643c-7.38297,4.28338 -15.85812,6.26017 -27.72101,-9.32845z" fill="#272525"/></g><g><path d="M222.1467,180.59547c1.21346,-0.45407 3.83095,0.3594 4.8822,2.75494c1.9525,4.44885 3.28156,8.62189 7.91761,11.28081c3.69135,2.11591 8.8544,0.68197 13.24059,1.51976c5.33959,1.07869 4.35849,3.95807 1.27163,6.47437c-7.73111,6.31269 -16.23098,6.90348 -22.57118,3.83088c-7.77734,-3.80764 -15.30398,-17.23783 -8.25038,-24.41472c-0.74043,-1.1506 -4.66263,-7.90586 -3.94504,-8.7388c1.9694,-2.30847 8.74436,0.18093 7.45458,7.29278z" fill="#272525"/><path d="M216.40332,174.09002c1.05108,-0.68104 2.4584,-0.76495 3.63372,1.34072c0.74395,1.33742 1.15286,6.2753 2.1272,6.09889c2.44971,-0.46294 5.03462,8.57456 9.30228,12.28987c5.96147,5.1068 12.16509,2.43139 16.81502,4.29931c2.54939,1.01603 0.87854,3.14638 0.26919,3.61785c-9.55397,7.2382 -17.25959,4.95322 -21.2373,2.90015c-5.21219,-2.72002 -7.84402,-8.89566 -9.21334,-14.44809c-0.27948,-1.10172 -0.52413,-3.41177 -0.28675,-4.55197c0.32638,-1.76008 -0.5746,-2.2751 0.74007,-3.46427c0.227,-0.1624 -2.15005,-8.08244 -2.15005,-8.08244z" fill="#fff63b"/><path d="M221.04163,183.76469c-0.12223,-0.38587 0.36314,-0.5675 0.4697,-0.25324c3.83342,10.45174 10.79562,17.5525 19.57657,17.38769c1.86832,-0.03501 4.95878,-0.82627 5.61528,-1.08299c0.70021,-0.2288 0.79284,0.87649 0.16425,1.08955c-0.62855,0.21303 -1.52776,0.5606 -2.4584,0.76495c-8.28848,1.89514 -16.72038,0.74513 -23.3674,-17.90599z" fill="#272525"/></g><g><path d="M216.75279,179.30662c1.24453,0.36042 2.86819,2.25081 2.70776,4.72737c-0.27717,4.98088 -0.43208,8.99566 2.40273,13.61954c2.28137,3.65863 6.71495,5.18444 10.12827,8.02698c4.16131,3.50163 0.76181,6.43857 -3.07313,7.25734c-9.60129,2.06876 -16.00924,-2.24549 -20.0497,-8.06455c-4.97587,-7.14979 -5.36947,-22.8701 4.03596,-25.98412c-0.11665,-1.36329 -0.46659,-9.32066 0.55846,-9.77488c2.74949,-1.13954 7.38998,4.508 3.28967,10.19231z" fill="#272525"/><path d="M214.60555,170.69922c1.10143,0.39238 2.43832,1.67091 2.539,2.96268c0.06869,1.14867 -0.53202,4.51201 -1.37308,6.12673c2.34597,0.75282 0.88119,10.50473 2.87014,15.88075c2.78202,7.41439 9.40879,7.99993 12.57281,11.91192c1.71534,2.13283 -0.66048,3.2641 -1.46336,3.36828c-11.57291,1.98331 -17.25095,-3.77054 -19.73501,-7.49651c-3.27238,-4.9017 -2.70702,-11.78682 -1.3652,-17.38085c0.2771,-1.11327 1.13345,-3.33212 1.83211,-4.2391c1.10358,-1.44803 1.44524,-1.59943 3.07447,-2.03835c0.31395,-0.10763 0.10567,-9.44846 1.04811,-9.09559z" fill="#fff63b"/><path d="M214.15957,181.65046c0.0632,-0.38958 0.56812,-0.31456 0.51669,-0.04025c-1.47518,11.21869 1.2735,21.00609 8.99676,24.98905c1.61466,0.84104 4.63641,1.59318 5.37186,1.69183c0.73541,0.09861 0.23123,0.69939 -0.40493,0.54099c-0.66391,-0.11458 -1.1688,-0.18964 -2.09521,-0.47088c-8.02755,-2.15024 -15.17512,-6.74985 -12.38517,-26.71073z" fill="#272525"/></g></g></g></svg>