<svg version="1.1" xmlns="http://www.w3.org/2000/svg" xmlns:xlink="http://www.w3.org/1999/xlink" width="54.01097" height="46.43261" viewBox="0,0,54.01097,46.43261"><g transform="translate(-204.63955,-167.42595)"><g data-paper-data="{&quot;isPaintingLayer&quot;:true}" fill-rule="evenodd" stroke="none" stroke-width="1" stroke-linecap="butt" stroke-linejoin="miter" stroke-miterlimit="10" stroke-dasharray="" stroke-dashoffset="0" style="mix-blend-mode: normal"><g><path d="M256.32023,200.35738c-7.6242,6.55777 -16.21544,7.46359 -22.75757,4.66367c-8.02522,-3.45764 -16.16863,-16.425 -9.28396,-23.71637c-0.52066,-0.71261 -2.54231,-3.81502 -3.68548,-6.09683l1.62835,-3.15712c2.52057,0.20508 5.67859,2.97475 5.5953,7.6791c1.2163,-0.39867 3.80085,0.29111 4.94398,2.57294c2.12853,4.29072 3.61435,8.37253 8.42648,10.78553c3.86567,1.91719 9.02989,0.27752 13.49233,0.96345c5.44386,0.81699 4.58013,3.67931 1.64059,6.30559z" fill="#272525"/><path d="M221.74269,173.58786c1.19538,-0.1798 3.03827,0.18113 3.71682,1.16666c-0.00199,0.40472 1.40278,6.09868 2.37927,5.89783c2.44466,-0.53852 5.39335,8.24877 9.88155,11.73515c6.20012,4.82873 12.40586,1.92687 17.21501,3.60325c2.6365,0.91571 0.99325,3.07733 0.39353,3.57202c-9.44721,7.52407 -17.32067,5.55355 -21.41224,3.68834c-5.36276,-2.42906 -8.27868,-8.48883 -9.82445,-13.86495c-0.2997,-1.09641 -0.6004,-3.33414 -0.45541,-4.46152c0.31397,-1.737 0.48788,-2.01482 1.74827,-3.25605c0.16693,-0.20486 -3.64235,-8.08073 -3.64235,-8.08073z" fill="#fff63b"/><path d="M226.73918,182.90299c-0.15085,-0.3458 0.34789,-0.55566 0.46578,-0.24982c4.25583,10.12763 11.59421,16.90636 20.44926,16.32033c1.85197,-0.11679 4.99527,-1.02998 5.67991,-1.25881c0.72461,-0.26187 0.54863,0.42076 -0.10297,0.68956c-0.61172,0.23581 -1.14342,0.40572 -2.12685,0.67947c-8.23959,2.22813 -16.93765,1.94567 -24.36511,-16.18072z" fill="#272525"/></g><g><path d="M223.98181,179.97321c1.28378,-0.1748 3.65692,1.19678 4.15303,3.76536c0.92152,4.77026 1.29592,9.13379 5.2301,12.75113c3.13276,2.87906 8.48502,2.62105 12.57779,4.40706c4.9694,2.23156 3.37648,4.82308 -0.18997,6.59534c-8.9346,4.44895 -17.35499,3.14753 -22.85983,-1.24971c-6.74411,-5.43159 -11.11809,-20.19263 -2.65337,-25.6341c-0.46797,-1.28574 -2.80105,-8.74053 -1.91719,-9.39438c2.43069,-1.81641 8.48838,2.10808 5.65946,8.75933z" fill="#272525"/><path d="M219.81736,172.35975c1.17556,-0.43203 2.56665,-0.203 3.24779,2.11028c0.43014,1.46872 -0.26183,6.37495 0.72741,6.41812c2.49146,0.08964 3.01613,9.47488 6.35766,14.04114c4.68611,6.29753 11.32748,5.05859 15.44992,7.90753c2.26197,1.55409 0.1618,3.26272 -0.53664,3.58794c-10.91687,4.94893 -17.92739,1.01822 -21.35331,-1.8628c-4.48259,-3.80419 -5.6852,-10.40865 -5.79417,-16.1264c-0.02921,-1.13624 0.24247,-3.44326 0.72586,-4.50287c0.70711,-1.6445 -0.05784,-2.34582 1.48704,-3.21521c0.25726,-0.10824 -0.31153,-8.35772 -0.31153,-8.35772z" fill="#fff63b"/><path d="M222.20396,182.82003c-0.03397,-0.40334 0.47953,-0.47327 0.51404,-0.14323c1.42994,11.04034 6.6516,19.50364 15.25204,21.28261c1.8299,0.37856 5.0188,0.28954 5.71579,0.18418c0.73346,-0.06848 0.57964,1.02997 -0.08049,1.09892c-0.66008,0.06892 -1.61385,0.20927 -2.56665,0.203c-8.50236,0.01741 -16.47193,-2.9668 -18.83473,-22.62549z" fill="#272525"/></g><g><path d="M220.19594,178.14282c1.09503,0.69258 2.12834,2.96021 1.2849,5.29424c-1.65262,4.70689 -2.91892,8.51989 -1.48318,13.7501c1.17285,4.14905 5.00651,6.84864 7.49372,10.52892c3.0222,4.52153 -1.06045,6.39617 -4.97173,6.11514c-9.79769,-0.68548 -14.75154,-6.61286 -17.01261,-13.32661c-2.78911,-8.25225 1.20854,-23.46087 11.10905,-23.83385c0.26742,-1.34188 2.14622,-9.08219 3.25719,-9.23314c2.95802,-0.3292 5.84315,6.38683 0.32267,10.70519z" fill="#272525"/><path d="M220.5294,169.2779c0.94869,0.68345 1.87687,2.28357 1.61401,3.55232c-0.25375,1.12239 -1.76689,4.18562 -3.02417,5.50241c2.04371,1.37606 -2.07759,10.33487 -1.66364,16.05205c0.60831,7.89574 6.81021,10.30268 8.7603,14.94077c1.05389,2.526 -1.54293,2.95126 -2.34307,2.82784c-11.66761,-1.31635 -15.51969,-8.42327 -16.86848,-12.69342c-1.77869,-5.61884 0.68078,-12.0745 3.52664,-17.07397c0.57602,-0.99215 2.01614,-2.88495 2.93964,-3.56161c1.46302,-1.08363 1.83332,-1.13395 3.52034,-1.10202c0.3315,-0.01599 2.73144,-9.04565 3.53841,-8.4444z" fill="#fff63b"/><path d="M217.0528,179.67222c0.16914,-0.35659 0.63322,-0.144 0.50747,0.10515c-4.53956,10.36472 -4.62379,20.53042 1.68561,26.50572c1.31675,1.25724 4.00973,2.82074 4.68865,3.12021c0.6789,0.29941 0.02742,0.73611 -0.53951,0.4069c-0.60578,-0.29485 -1.06983,-0.50748 -1.88134,-1.03546c-7.1118,-4.2997 -12.69661,-10.70704 -4.46089,-29.10251z" fill="#272525"/></g></g></g></svg>