<svg version="1.1" xmlns="http://www.w3.org/2000/svg" xmlns:xlink="http://www.w3.org/1999/xlink" width="38.81259" height="72.82773" viewBox="0,0,38.81259,72.82773"><defs><radialGradient cx="229.32531" cy="211.5262" r="16.09517" gradientUnits="userSpaceOnUse" id="color-1"><stop offset="0" stop-color="#f0d520"/><stop offset="1" stop-color="#ff9400"/></radialGradient><radialGradient cx="230.53105" cy="212.78215" r="0.46628" gradientUnits="userSpaceOnUse" id="color-2"><stop offset="0" stop-color="#f0d520"/><stop offset="1" stop-color="#ff9400"/></radialGradient><radialGradient cx="234.91222" cy="169.46812" r="37.83937" gradientUnits="userSpaceOnUse" id="color-3"><stop offset="0" stop-color="#ffff00"/><stop offset="1" stop-color="#ff9400"/></radialGradient></defs><g transform="translate(-211.16672,-153.01367)"><g data-paper-data="{&quot;isPaintingLayer&quot;:true}" fill-rule="nonzero" stroke-linejoin="miter" stroke-miterlimit="10" stroke-dasharray="" stroke-dashoffset="0" style="mix-blend-mode: normal"><g><g fill="url(#color-1)" stroke="none" stroke-width="1" stroke-linecap="butt"><g><path d="M227.94715,199.09978c-0.43653,0.49986 0.40154,2.13048 -0.05131,2.64963c-0.5791,0.66353 -1.1987,1.36232 -1.54772,2.18406c-0.43398,1.02045 -0.01049,1.29702 -0.37038,-0.00832c0.20544,0.74463 0.5985,1.49233 1.30873,1.87681c1.38961,0.75237 2.72627,0.25155 2.89201,-1.3912c-0.01855,0.86743 -0.03657,1.73434 -0.05459,2.60235c-0.01447,-0.61578 0.15212,-1.78882 -0.68622,-0.96448c-0.42487,0.41739 -0.85583,0.85005 -1.0973,1.40827c-0.47087,1.08819 -0.62686,0.87888 -0.17697,2.02696c0.21105,0.53951 0.4263,1.1078 0.79588,1.5651c0.01913,0.02422 1.19939,1.23214 1.20813,0.97625c0.01966,-0.57163 0.10033,-1.06518 0.38527,-1.56537c-0.01728,0.88339 -0.03456,1.76624 -0.05184,2.64963c-3.86126,2.78452 -2.32653,6.93094 0.50946,10.08229c0.4405,0.48948 -0.47363,2.18067 -0.05178,2.64963c-3.24956,-3.61114 -5.04946,-12.03293 -0.40584,-15.38155c-0.39253,0.2834 0.22266,2.16779 -0.05184,2.64963c-0.2992,0.5253 -0.3566,0.9674 -0.37759,1.57872c-0.00064,0.06042 -0.00398,0.12132 -0.01044,0.18111c-2.6367,-1.98546 -2.50849,-5.34289 -2.24517,-8.31435c0.09254,-1.04679 2.2457,-4.93927 2.30316,-2.51071c0.02311,0.98706 0.01479,1.98297 -0.04002,2.96897c-0.16192,2.88337 -3.86524,1.84665 -4.20541,-0.43849c-0.41787,-2.81304 0.12927,-5.30822 2.02177,-7.47495z"/></g></g><path d="M230.87467,211.00535c0,0 0.05777,1.59855 -0.053,2.3851c-0.05088,0.36041 -0.42402,1.00704 -0.42402,1.00704" fill="none" stroke="url(#color-2)" stroke-width="2" stroke-linecap="round"/></g><path d="M249.69988,179.59546c-1.80457,13.14438 -17.49756,22.597 -22.23595,22.43301c-5.16724,-0.17856 -17.92794,-14.55429 -16.12395,-27.69968c1.8051,-13.14444 11.8551,-22.62191 22.44754,-21.16785c10.59238,1.45406 17.71688,13.29009 15.91237,26.43452z" fill="url(#color-3)" stroke="none" stroke-width="1" stroke-linecap="butt"/></g></g></svg>