<svg version="1.1" xmlns="http://www.w3.org/2000/svg" xmlns:xlink="http://www.w3.org/1999/xlink" width="46.60121" height="45.62141" viewBox="0,0,46.60121,45.62141"><g transform="translate(-201.60491,-172.23279)"><g data-paper-data="{&quot;isPaintingLayer&quot;:true}" fill-rule="evenodd" stroke="none" stroke-width="1" stroke-linecap="butt" stroke-linejoin="miter" stroke-miterlimit="10" stroke-dasharray="" stroke-dashoffset="0" style="mix-blend-mode: normal"><g><path d="M243.65938,217.16884c-10.05434,0.20734 -17.2582,-4.56072 -20.52328,-10.88356c-3.99064,-7.77394 -2.02119,-22.95909 7.92948,-24.20292c0.0518,-0.88103 0.46641,-4.56072 1.0365,-7.04839l3.26509,-1.39931c1.81392,1.76211 2.48767,5.90822 -0.57008,9.48425c1.19197,0.46641 2.74681,2.64314 2.17666,5.13081c-1.0883,4.66439 -2.53947,8.75864 -0.36275,13.68217c1.76211,3.93878 6.78925,5.96003 9.7952,9.32872c3.67964,4.09431 1.19197,5.75275 -2.74681,5.90822z" fill="#272525"/><path d="M234.01965,174.5157c1.03656,0.62195 2.22853,2.07306 2.12486,3.26509c-0.25908,0.31094 -2.79861,5.59728 -1.91752,6.0637c2.22853,1.14017 -1.08836,9.7952 0.15547,15.34061c1.71025,7.67028 8.34403,9.38059 10.98717,13.73397c1.45117,2.38406 -1.19197,3.00595 -1.96939,3.00595c-12.07553,-0.20728 -16.89539,-6.73745 -18.86484,-10.77989c-2.59127,-5.28628 -0.98469,-11.81639 1.24383,-16.94726c0.46648,-1.0365 1.65844,-2.95408 2.48767,-3.7315c1.3475,-1.14017 1.65844,-1.24383 3.42056,-1.39931c0.25914,-0.0518 2.3322,-8.55136 2.3322,-8.55136z" fill="#fff63b"/><path d="M231.9466,184.88098c0.10367,-0.36275 0.62195,-0.20728 0.51828,0.10367c-3.16142,10.52075 -1.81392,20.41962 5.38995,25.60223c1.50297,1.08836 4.50886,2.38406 5.18261,2.6432c0.72561,0.25908 0.15547,0.67369 -0.51822,0.46641c-0.62195,-0.20734 -1.14023,-0.41461 -2.07306,-0.82922c-7.77401,-3.52423 -14.30412,-9.27692 -8.49956,-27.98629z" fill="#272525"/></g><g><path d="M232.87949,182.44517c1.0365,0.77736 1.76211,3.42056 0.31094,5.59722c-2.69494,4.0425 -5.49361,7.4112 -5.23447,12.74934c0.20734,4.24972 4.19798,7.82575 5.85642,11.97186c1.96939,5.079 -0.98475,5.80456 -4.76806,4.56072c-9.48425,-3.10955 -14.5632,-9.95067 -15.39242,-16.94719c-0.98469,-8.60323 6.27097,-22.18173 16.11797,-20.10867c0.57008,-1.24383 4.14611,-8.18856 5.23447,-8.03308c3.00595,0.41461 4.56072,7.463 -2.12486,10.20981z" fill="#272525"/><path d="M235.26349,174.10108c1.14017,0.51828 1.96939,1.65844 0.82922,3.78336c-0.72555,1.3475 -4.66439,4.35339 -3.99064,5.079c1.71031,1.81392 -4.50886,8.86231 -5.33808,14.45953c-1.08836,7.77394 4.50886,11.55731 5.44175,16.48078c0.51828,2.695 -2.17672,2.43586 -2.90228,2.17672c-11.24631,-4.14611 -13.47489,-11.86825 -13.88951,-16.32531c-0.51822,-5.85636 3.26509,-11.40178 7.20392,-15.54789c0.77736,-0.82922 2.59127,-2.28039 3.67964,-2.695c1.65844,-0.67375 1.60664,-1.71025 3.31689,-1.24383c0.25914,0.10367 5.64909,-6.16736 5.64909,-6.16736z" fill="#fff63b"/><path d="M229.6144,183.22253c0.25914,-0.31094 0.67375,0 0.46648,0.25914c-6.73745,8.86231 -8.96597,18.5539 -4.09431,25.86137c1.0365,1.55484 3.36869,3.7315 3.93878,4.14611c0.57014,0.46648 -0.31094,1.14023 -0.82922,0.72561c-0.51822,-0.41461 -1.29564,-0.98469 -1.96939,-1.65844c-6.0637,-5.96003 -9.63973,-13.68217 2.48767,-29.33379z" fill="#272525"/></g><g><path d="M229.19979,181.09767c0.36281,1.24383 -0.36275,3.62783 -2.53947,4.81986c-4.35345,2.43586 -7.82581,4.45706 -10.20981,9.32872c-1.86578,3.88703 -0.77742,8.44776 -1.3475,12.85295c-0.72555,5.38995 -5.02714,4.09431 -7.77394,1.2957c-6.89292,-6.99659 -6.68558,-14.71873 -3.93884,-21.24884c3.36875,-8.03308 16.42898,-16.79172 24.09931,-10.52075c1.08836,-0.82922 7.61847,-5.38995 8.55136,-4.76806c2.4358,1.71031 0.15547,8.65503 -6.84111,8.24042z" fill="#272525"/><path d="M235.31529,174.67123c0.25914,1.14017 -0.10361,2.95408 -1.14017,3.7315c-0.93289,0.67369 -4.09425,1.96939 -5.90822,2.12486c0.62195,2.384 -8.39583,6.37464 -11.86819,10.93536c-4.76806,6.32284 -1.71031,12.23106 -3.31689,16.99906c-0.88109,2.59134 -3.10961,1.19203 -3.62789,0.57008c-7.87761,-8.70684 -6.0637,-16.58445 -4.24972,-20.6787c2.384,-5.38995 8.4995,-8.60323 13.94125,-10.46895c1.08836,-0.36281 3.42056,-0.82922 4.56072,-0.72555c1.81398,0.15547 2.12492,0.36275 3.36875,1.50291c0.25914,0.20734 8.03308,-4.97533 8.24036,-3.99058z" fill="#fff63b"/><path d="M225.8311,180.16478c0.36275,-0.15547 0.57008,0.311 0.31094,0.41461c-10.26161,4.76806 -17.05086,12.33473 -16.2735,20.9897c0.15547,1.81392 1.14023,4.76806 1.45117,5.44181c0.31094,0.67369 -0.46648,0.57008 -0.67375,-0.05186c-0.25914,-0.62189 -0.46641,-1.08836 -0.72555,-2.02119c-2.48767,-7.92948 -2.43586,-16.42898 15.9107,-24.77306z" fill="#272525"/></g></g></g></svg>